<svg width="100" height="100" viewBox="0 0 100 100" fill="none" xmlns="http://www.w3.org/2000/svg">
<rect width="100" height="100" />
<path d="M76.2299 48.06C76.9657 47.5473 77.661 46.979 78.3099 46.36C80.2748 44.3852 81.7686 41.9925 82.6799 39.36C82.8282 38.9416 82.855 38.4897 82.757 38.0567C82.6591 37.6236 82.4406 37.2272 82.1266 36.9133C81.8127 36.5994 81.4163 36.3808 80.9833 36.2829C80.5503 36.185 80.0984 36.2117 79.6799 36.36C77.1837 37.2529 74.4853 37.4187 71.8985 36.8381C69.3118 36.2575 66.943 34.9544 65.0679 33.0803C63.1927 31.2062 61.8882 28.8381 61.3062 26.2517C60.7241 23.6653 60.8884 20.9667 61.7799 18.47C61.9326 18.0513 61.9625 17.5977 61.8662 17.1626C61.7699 16.7275 61.5513 16.3289 61.2361 16.0138C60.921 15.6987 60.5225 15.4801 60.0873 15.3838C59.6522 15.2874 59.1986 15.3173 58.7799 15.47C54.3049 17.0026 50.5884 20.1938 48.3966 24.3856C46.2049 28.5775 45.705 33.4505 46.9999 38C43.8667 38.4 40.8479 39.4346 38.1279 41.0404C35.4078 42.6463 33.0437 44.7898 31.1799 47.34C28.699 46.9802 26.1686 47.1936 23.783 47.9638C21.3974 48.734 19.2199 50.0406 17.4178 51.7832C15.6156 53.5258 14.2366 55.6581 13.3867 58.0165C12.5368 60.3749 12.2385 62.8967 12.5147 65.3883C12.791 67.8799 13.6344 70.2752 14.9802 72.3901C16.3261 74.5051 18.1386 76.2836 20.2787 77.5891C22.4188 78.8947 24.8296 79.6926 27.326 79.9215C29.8224 80.1505 32.3381 79.8045 34.6799 78.91C38.9018 82.6279 44.3344 84.679 49.9599 84.679C55.5855 84.679 61.0181 82.6279 65.2399 78.91C67.1055 79.6328 69.0892 80.0024 71.0899 80C74.9876 80.0134 78.762 78.6348 81.7334 76.1125C84.7049 73.5902 86.6782 70.0899 87.298 66.2418C87.9179 62.3937 87.1435 58.4508 85.1144 55.123C83.0852 51.7952 79.9347 49.3012 76.2299 48.09V48.06ZM55.1099 23.16C55.4884 22.783 55.8891 22.429 56.3099 22.1C56.151 24.7351 56.5529 27.3739 57.4892 29.8421C58.4255 32.3103 59.8748 34.5518 61.7415 36.4185C63.6081 38.2852 65.8496 39.7345 68.3178 40.6708C70.7861 41.6071 73.4249 42.009 76.0599 41.85C74.1066 44.3209 71.3572 46.0383 68.2799 46.71C66.303 44.1877 63.8253 42.1019 61.0028 40.584C58.1804 39.0661 55.0742 38.1488 51.8799 37.89C50.9638 35.3815 50.7811 32.6639 51.3531 30.0553C51.9251 27.4467 53.2282 25.055 55.1099 23.16ZM71.1099 75.28C68.6994 75.2789 66.3484 74.5313 64.3799 73.14C62.6433 75.2742 60.453 76.9946 57.9681 78.1762C55.4833 79.3577 52.7664 79.9708 50.0149 79.9708C47.2635 79.9708 44.5466 79.3577 42.0618 78.1762C39.5769 76.9946 37.3866 75.2742 35.6499 73.14C33.9849 74.3133 32.0428 75.0324 30.0152 75.2263C27.9875 75.4203 25.9443 75.0825 24.087 74.2462C22.2297 73.4098 20.6225 72.1039 19.4237 70.4571C18.2249 68.8103 17.4761 66.8795 17.2509 64.8551C17.0257 62.8307 17.3321 60.7825 18.1397 58.9126C18.9474 57.0426 20.2284 55.4155 21.8565 54.1915C23.4847 52.9675 25.4037 52.189 27.4245 51.9327C29.4452 51.6765 31.4978 51.9512 33.3799 52.73C34.8607 49.8229 37.0755 47.3532 39.8049 45.5658C42.5342 43.7784 45.6833 42.7353 48.9399 42.54C49.2899 42.54 49.6399 42.47 49.9999 42.47C53.2438 42.4909 56.4261 43.3579 59.2322 44.9854C62.0383 46.613 64.3711 48.9447 65.9999 51.75C66.1999 52.08 66.4199 52.39 66.5899 52.75C68.1919 52.0874 69.9208 51.7883 71.6523 51.8745C73.3837 51.9607 75.0744 52.4298 76.6027 53.2482C78.1309 54.0666 79.4585 55.2139 80.4899 56.6072C81.5213 58.0006 82.2307 59.6054 82.5671 61.3061C82.9034 63.0067 82.8583 64.7607 82.435 66.4418C82.0117 68.1229 81.2208 69.6892 80.1191 71.0277C79.0175 72.3662 77.6327 73.4437 76.0644 74.1825C74.4961 74.9213 72.7835 75.3029 71.0499 75.3L71.1099 75.28Z" fill="#F6F1E9"/>
</svg>
