<svg width="100" height="100" viewBox="0 0 100 100" fill="none" xmlns="http://www.w3.org/2000/svg">
<rect width="100" height="100" />
<path d="M12.91 31L17 33.32C17.3449 33.5135 17.7345 33.6134 18.13 33.61C18.6403 33.6104 19.1363 33.4417 19.5406 33.1305C19.945 32.8192 20.2349 32.3828 20.3651 31.8894C20.4953 31.396 20.4585 30.8734 20.2603 30.4032C20.0622 29.9329 19.714 29.5415 19.27 29.29L15.18 27C14.9164 26.8154 14.6172 26.6879 14.3014 26.6256C13.9857 26.5634 13.6605 26.5678 13.3465 26.6386C13.0326 26.7094 12.737 26.845 12.4785 27.0367C12.22 27.2284 12.0045 27.472 11.8456 27.7519C11.6868 28.0318 11.5882 28.3417 11.5562 28.6619C11.5241 28.9821 11.5593 29.3055 11.6595 29.6113C11.7597 29.9171 11.9227 30.1986 12.1381 30.4377C12.3534 30.6769 12.6163 30.8684 12.91 31Z" fill="#F6F1E9"/>
<path d="M18.28 48.51C18.1143 47.9194 17.7215 47.4184 17.1874 47.1167C16.6533 46.815 16.0214 46.7371 15.43 46.9L10.88 48.18C10.3379 48.3264 9.86771 48.6653 9.55734 49.1333C9.24698 49.6013 9.11769 50.1663 9.19367 50.7226C9.26965 51.279 9.54569 51.7886 9.97017 52.1562C10.3946 52.5239 10.9385 52.7243 11.5 52.72C11.7099 52.7188 11.9185 52.6885 12.12 52.63L16.67 51.36C17.2606 51.1943 17.7616 50.8014 18.0633 50.2673C18.365 49.7332 18.443 49.1014 18.28 48.51Z" fill="#F6F1E9"/>
<path d="M49 24.31C49.3482 24.5056 49.7406 24.6089 50.14 24.61C50.5483 24.6095 50.949 24.4998 51.3006 24.2923C51.6523 24.0848 51.9421 23.7871 52.14 23.43L54.46 19.31C54.6446 19.0464 54.7721 18.7472 54.8344 18.4315C54.8966 18.1157 54.8922 17.7905 54.8214 17.4766C54.7506 17.1626 54.615 16.867 54.4233 16.6085C54.2316 16.3501 53.988 16.1345 53.7081 15.9757C53.4282 15.8168 53.1183 15.7182 52.798 15.6862C52.4778 15.6541 52.1545 15.6893 51.8487 15.7895C51.5429 15.8898 51.2614 16.0527 51.0222 16.2681C50.7831 16.4834 50.5916 16.7463 50.46 17.04L48.13 21.16C47.8301 21.6936 47.7533 22.3242 47.9163 22.9142C48.0792 23.5042 48.4687 24.0059 49 24.31Z" fill="#F6F1E9"/>
<path d="M30 20.81C30.1386 21.2952 30.4309 21.7222 30.8331 22.027C31.2352 22.3318 31.7254 22.4978 32.23 22.5C32.4398 22.4988 32.6485 22.4685 32.85 22.41C33.4406 22.2443 33.9416 21.8514 34.2433 21.3173C34.545 20.7832 34.6229 20.1514 34.46 19.56L33.22 15C33.1386 14.7072 33.0003 14.4332 32.813 14.1938C32.6257 13.9544 32.3931 13.7543 32.1284 13.6047C31.8638 13.4552 31.5723 13.3593 31.2706 13.3225C30.9689 13.2856 30.6628 13.3086 30.37 13.39C30.0772 13.4714 29.8032 13.6097 29.5638 13.797C29.3244 13.9843 29.1242 14.2169 28.9747 14.4816C28.8252 14.7462 28.7293 15.0377 28.6925 15.3394C28.6556 15.6411 28.6786 15.9472 28.76 16.24L30 20.81Z" fill="#F6F1E9"/>
<path d="M81.67 59.29C83.6304 57.7793 85.07 55.6941 85.7879 53.3256C86.5057 50.9571 86.4659 48.4235 85.674 46.0787C84.8822 43.7339 83.3777 41.6949 81.3709 40.2466C79.364 38.7982 76.9549 38.0128 74.48 38C73.9718 38.0034 73.4643 38.0368 72.96 38.1C70.5862 35.1808 67.2361 33.2193 63.5286 32.5778C59.8211 31.9363 56.0067 32.6581 52.79 34.61C51.6491 32.6051 50.0972 30.8641 48.236 29.5013C46.3748 28.1386 44.2464 27.1848 41.9906 26.7026C39.7347 26.2204 37.4024 26.2208 35.1467 26.7036C32.891 27.1864 30.763 28.1408 28.9021 29.5041C27.0413 30.8675 25.4899 32.6089 24.3496 34.6141C23.2093 36.6194 22.5059 38.8431 22.2857 41.1393C22.0655 43.4356 22.3333 45.7524 23.0717 47.9379C23.8101 50.1233 25.0023 52.1278 26.57 53.82C24.7597 54.6395 23.1286 55.8074 21.7697 57.2573C20.4108 58.7071 19.3508 60.4104 18.6502 62.2699C17.9496 64.1294 17.6221 66.1087 17.6864 68.0947C17.7507 70.0808 18.2056 72.0347 19.025 73.845C19.8445 75.6553 21.0124 77.2864 22.4623 78.6453C23.9121 80.0042 25.6154 81.0642 27.4749 81.7648C29.3344 82.4654 31.3137 82.7929 33.2997 82.7286C35.2858 82.6643 37.2397 82.2095 39.05 81.39C42.4706 83.8814 46.5933 85.2237 50.825 85.2237C55.0568 85.2237 59.1794 83.8814 62.6 81.39C65.5943 82.8101 68.9718 83.2085 72.2143 82.5241C75.4568 81.8397 78.3852 80.1104 80.5502 77.6014C82.7152 75.0924 83.9971 71.9424 84.1994 68.6346C84.4017 65.3269 83.5131 62.0441 81.67 59.29ZM60.87 37.05C62.6852 37.0413 64.4733 37.4903 66.0691 38.3555C67.6648 39.2207 69.0168 40.4741 70 42L71 43.45L72.57 43C74.2009 42.5586 75.9355 42.7107 77.4647 43.4291C78.9938 44.1476 80.2182 45.3857 80.9195 46.9228C81.6208 48.4599 81.7535 50.1961 81.2939 51.8219C80.8343 53.4478 79.8123 54.8575 78.41 55.8C75.7549 53.6977 72.4666 52.5558 69.08 52.56C68.2828 52.5587 67.4869 52.6222 66.7 52.75C63.6923 48.845 59.3484 46.1882 54.502 45.2894C49.6556 44.3906 44.648 45.3132 40.44 47.88C40.9592 46.0786 42.1689 44.5552 43.8057 43.6413C45.4425 42.7274 47.3741 42.4969 49.18 43L50.84 43.46L51.79 42C52.7707 40.4832 54.1151 39.2357 55.701 38.3712C57.2869 37.5066 59.0638 37.0525 60.87 37.05ZM80.39 57.66L80.06 57.3L80.39 57.66ZM79.39 56.66L79.18 56.47L79.39 56.66ZM28.4 37C29.4512 35.1372 30.9912 33.5969 32.8539 32.5456C34.7166 31.4942 36.8312 30.9718 38.9692 31.0345C41.1072 31.0973 43.1874 31.743 44.9852 32.9019C46.783 34.0607 48.23 35.6887 49.17 37.61C49.04 37.76 48.89 37.9 48.76 38.06C48.2658 37.9968 47.7682 37.9634 47.27 37.96C44.1234 37.9706 41.1089 39.2259 38.8848 41.4518C36.6607 43.6778 35.4079 46.6934 35.4 49.84C35.4023 50.565 35.4726 51.2882 35.61 52C35.39 52.26 35.15 52.5 34.94 52.77C34.1665 52.6426 33.3839 52.579 32.6 52.58H32.2C29.7034 50.9539 27.9205 48.4372 27.2145 45.5426C26.5085 42.6479 26.9325 39.593 28.4 37ZM39.28 48.65L38.96 48.88L39.28 48.65ZM69.08 78.1C67.1464 78.0938 65.2526 77.5503 63.61 76.53L62.14 75.61L60.81 76.74C58.0302 79.1379 54.4812 80.4571 50.81 80.4571C47.1388 80.4571 43.5899 79.1379 40.81 76.74L39.5 75.61L38 76.54C36.6309 77.3855 35.084 77.9015 33.4814 78.0472C31.8788 78.1929 30.2643 77.9643 28.7651 77.3795C27.2659 76.7948 25.9231 75.8698 24.8424 74.6774C23.7617 73.4851 22.9727 72.0581 22.5377 70.5088C22.1026 68.9595 22.0334 67.3304 22.3354 65.7498C22.6374 64.1692 23.3024 62.6803 24.2781 61.4006C25.2537 60.1209 26.5132 59.0853 27.9574 58.3754C29.4015 57.6655 30.9908 57.3008 32.6 57.31C33.5261 57.3155 34.4474 57.4433 35.34 57.69L37.01 58.15L38 56.7C39.3937 54.5559 41.3009 52.794 43.5485 51.5743C45.7961 50.3546 48.3128 49.7157 50.87 49.7157C53.4272 49.7157 55.9439 50.3546 58.1915 51.5743C60.4391 52.794 62.3463 54.5559 63.74 56.7L64.74 58.15L66.41 57.69C67.3113 57.4345 68.2432 57.3033 69.18 57.3C71.8811 57.3838 74.4436 58.5157 76.3246 60.456C78.2057 62.3963 79.2576 64.9926 79.2576 67.695C79.2576 70.3974 78.2057 72.9937 76.3246 74.934C74.4436 76.8743 71.8811 78.0062 69.18 78.09L69.08 78.1ZM80.89 58.24L81.36 58.87L80.89 58.24Z" fill="#F6F1E9"/>
</svg>
