<svg width="100" height="100" viewBox="0 0 100 100" fill="none" xmlns="http://www.w3.org/2000/svg">
<rect width="100" height="100" />
<path d="M88.85 38.78C88.5458 38.4564 88.1551 38.2269 87.7244 38.1188C87.2936 38.0107 86.8409 38.0284 86.42 38.17C83.766 39.0687 80.9142 39.2102 78.1843 38.5786C75.4545 37.947 72.9546 36.5674 70.965 34.5945C68.9754 32.6215 67.5749 30.1332 66.9204 27.4088C66.266 24.6843 66.3836 21.8314 67.26 19.17C67.4008 18.7485 67.4171 18.2952 67.3068 17.8646C67.1965 17.4341 66.9644 17.0445 66.6382 16.7426C66.312 16.4406 65.9056 16.2392 65.4678 16.1625C65.03 16.0858 64.5794 16.137 64.17 16.31C60.6889 17.772 57.7189 20.2325 55.6348 23.3808C53.5507 26.5292 52.446 30.2244 52.46 34C52.4645 34.7557 52.5145 35.5104 52.61 36.26C49.4102 33.6632 45.3115 32.4408 41.2121 32.8607C37.1127 33.2806 33.3469 35.3085 30.74 38.5C30.2462 38.4322 29.7484 38.3988 29.25 38.4C26.9172 38.3949 24.6347 39.0773 22.6876 40.362C20.7404 41.6466 19.2149 43.4764 18.3017 45.623C17.3884 47.7695 17.1279 50.1376 17.5527 52.4313C17.9774 54.7251 19.0686 56.8428 20.69 58.52C18.599 61.2016 17.4723 64.5095 17.4917 67.9099C17.5111 71.3104 18.6754 74.6051 20.7968 77.2627C22.9183 79.9203 25.8732 81.7858 29.1848 82.5582C32.4964 83.3306 35.9717 82.9648 39.05 81.52C42.4742 84.0027 46.5955 85.3395 50.825 85.3395C55.0545 85.3395 59.1758 84.0027 62.6 81.52C64.5286 82.4379 66.6296 82.9373 68.7649 82.9855C70.9002 83.0336 73.0216 82.6294 74.9896 81.7995C76.9576 80.9695 78.7278 79.7325 80.1837 78.1697C81.6397 76.6069 82.7485 74.7538 83.4373 72.7321C84.1262 70.7103 84.3794 68.5657 84.1805 66.4391C83.9815 64.3125 83.3349 62.252 82.283 60.3931C81.2311 58.5342 79.7978 56.9189 78.0772 55.6533C76.3567 54.3878 74.3878 53.5006 72.3 53.05C75.9698 52.9271 79.5262 51.7473 82.5418 49.6523C85.5574 47.5573 87.9041 44.6363 89.3 41.24C89.4653 40.8294 89.5108 40.3803 89.4312 39.9448C89.3515 39.5094 89.15 39.1055 88.85 38.78ZM54.91 38.5C54.5698 38.0733 54.2024 37.6692 53.81 37.29C54.2024 37.6692 54.5698 38.0733 54.91 38.5ZM31.13 43.41L32.8 43.87L33.8 42.42C34.7833 40.9074 36.1289 39.6644 37.7146 38.8039C39.3003 37.9435 41.0758 37.4928 42.88 37.4928C44.6841 37.4928 46.4596 37.9435 48.0453 38.8039C49.631 39.6644 50.9767 40.9074 51.96 42.42L52.96 43.87L54.63 43.41C55.6371 43.13 56.6936 43.0752 57.7243 43.2496C58.7551 43.4239 59.7348 43.823 60.5938 44.4187C61.4529 45.0143 62.1703 45.7918 62.695 46.6959C63.2198 47.6 63.539 48.6086 63.63 49.65C61.5496 47.9401 59.147 46.6654 56.5647 45.9016C53.9824 45.1378 51.273 44.9004 48.5972 45.2036C45.9214 45.5067 43.3338 46.3441 40.9877 47.6662C38.6417 48.9883 36.5851 50.7681 34.94 52.9C34.1659 52.7776 33.3837 52.7141 32.6 52.71C29.5916 52.7042 26.6509 53.6031 24.16 55.29C23.052 54.1713 22.3455 52.7174 22.1507 51.155C21.9558 49.5926 22.2836 48.0096 23.0829 46.6531C23.8822 45.2966 25.1081 44.2428 26.5692 43.6561C28.0303 43.0694 29.6445 42.9829 31.16 43.41H31.13ZM68.26 49.14C68.3002 49.522 68.3202 49.9059 68.32 50.29C68.32 50.71 68.32 51.13 68.26 51.54C68.26 51.13 68.32 50.71 68.32 50.29C68.3202 49.9059 68.3002 49.522 68.26 49.14ZM23.91 55.47C23.64 55.66 23.37 55.86 23.11 56.07C23.37 55.86 23.64 55.66 23.91 55.47ZM22.58 56.53L22.18 56.89L22.58 56.53ZM21.58 57.53L21.37 57.75L21.58 57.53ZM79.47 67.86C79.474 69.7124 78.9817 71.532 78.0444 73.1298C77.1071 74.7275 75.7589 76.045 74.14 76.9453C72.5211 77.8456 70.6906 78.2958 68.8388 78.2492C66.987 78.2025 65.1815 77.6607 63.61 76.68L62.14 75.76L60.81 76.9C58.0292 79.296 54.4806 80.6139 50.81 80.6139C47.1394 80.6139 43.5908 79.296 40.81 76.9L39.5 75.77L38 76.7C36.5314 77.6107 34.859 78.141 33.134 78.2432C31.409 78.3453 29.6857 78.016 28.1199 77.285C26.5541 76.554 25.1951 75.4444 24.1657 74.0564C23.1364 72.6684 22.4691 71.0458 22.2242 69.3352C21.9793 67.6246 22.1645 65.8799 22.7631 64.2589C23.3617 62.6378 24.3548 61.1915 25.6526 60.0505C26.9504 58.9096 28.5121 58.11 30.1965 57.7241C31.8808 57.3381 33.6349 57.378 35.3 57.84L37 58.3L38 56.85C39.3953 54.7081 41.3031 52.9484 43.5505 51.7302C45.7978 50.5121 48.3137 49.8741 50.87 49.8741C53.4262 49.8741 55.9421 50.5121 58.1895 51.7302C60.4368 52.9484 62.3447 54.7081 63.74 56.85L64.74 58.3L66.41 57.84C67.3113 57.5845 68.2432 57.4533 69.18 57.45C71.92 57.4816 74.5371 58.5923 76.4635 60.5411C78.3899 62.49 79.4702 65.1198 79.47 67.86ZM65.2 51.19C65.734 51.7328 66.2349 52.3071 66.7 52.91C66.2349 52.3071 65.734 51.7328 65.2 51.19ZM71.6 48.47C70.4184 48.4574 69.243 48.2996 68.1 48C67.6143 45.5286 66.3576 43.2748 64.5105 41.5624C62.6634 39.8501 60.321 38.7674 57.82 38.47C56.9301 35.7946 56.8412 32.9175 57.5643 30.1922C58.2873 27.467 59.7908 25.0124 61.89 23.13C61.89 23.37 61.89 23.61 61.89 23.85C61.89 29.0828 63.9666 34.1018 67.664 37.8048C71.3614 41.5077 76.3772 43.5921 81.61 43.6H82.47C81.1079 45.1371 79.434 46.3665 77.5597 47.2062C75.6854 48.0459 73.6538 48.4768 71.6 48.47Z" fill="#F6F1E9"/>
</svg>
