<svg width="100" height="100" viewBox="0 0 100 100" fill="none" xmlns="http://www.w3.org/2000/svg">
<rect width="100" height="100" />
<path d="M55 74.21C55 71.44 50 64.21 50 64.21C50 64.21 45 71.44 45 74.21C45 75.5361 45.5268 76.8078 46.4645 77.7455C47.4021 78.6832 48.6739 79.21 50 79.21C51.3261 79.21 52.5979 78.6832 53.5355 77.7455C54.4732 76.8078 55 75.5361 55 74.21Z" fill="#F6F1E9"/>
<path d="M38.05 91.11C38.05 92.4361 38.5768 93.7078 39.5145 94.6455C40.4522 95.5832 41.724 96.11 43.05 96.11C44.3761 96.11 45.6479 95.5832 46.5856 94.6455C47.5233 93.7078 48.05 92.4361 48.05 91.11C48.05 88.35 43.05 81.11 43.05 81.11C43.05 81.11 38.05 88.35 38.05 91.11Z" fill="#F6F1E9"/>
<path d="M22.86 86.11C22.86 87.4361 23.3868 88.7078 24.3245 89.6455C25.2621 90.5832 26.5339 91.11 27.86 91.11C29.1861 91.11 30.4578 90.5832 31.3955 89.6455C32.3332 88.7078 32.86 87.4361 32.86 86.11C32.86 83.35 27.86 76.11 27.86 76.11C27.86 76.11 22.86 83.35 22.86 86.11Z" fill="#F6F1E9"/>
<path d="M53.24 91.11C53.24 92.4361 53.7668 93.7078 54.7045 94.6455C55.6421 95.5832 56.9139 96.11 58.24 96.11C59.5661 96.11 60.8378 95.5832 61.7755 94.6455C62.7132 93.7078 63.24 92.4361 63.24 91.11C63.24 88.35 58.24 81.11 58.24 81.11C58.24 81.11 53.24 88.35 53.24 91.11Z" fill="#F6F1E9"/>
<path d="M68.4301 86.11C68.4301 87.4361 68.9568 88.7078 69.8945 89.6455C70.8322 90.5832 72.104 91.11 73.4301 91.11C74.7561 91.11 76.0279 90.5832 76.9656 89.6455C77.9033 88.7078 78.4301 87.4361 78.4301 86.11C78.4301 83.35 73.4301 76.11 73.4301 76.11C73.4301 76.11 68.4301 83.35 68.4301 86.11Z" fill="#F6F1E9"/>
<path d="M43 13.27C43.3082 13.27 43.6133 13.2092 43.8978 13.0909C44.1824 12.9727 44.4408 12.7995 44.6582 12.5811C44.8756 12.3628 45.0478 12.1036 45.1648 11.8186C45.2818 11.5335 45.3413 11.2281 45.34 10.92V6.23C45.3011 5.63454 45.0371 5.07617 44.6016 4.6682C44.1661 4.26023 43.5918 4.03322 42.995 4.03322C42.3983 4.03322 41.8239 4.26023 41.3884 4.6682C40.9529 5.07617 40.6889 5.63454 40.65 6.23V10.92C40.65 11.5433 40.8976 12.141 41.3383 12.5817C41.779 13.0224 42.3768 13.27 43 13.27Z" fill="#F6F1E9"/>
<path d="M61.2 19.44L64.51 16.13C64.728 15.9127 64.901 15.6545 65.0193 15.3703C65.1375 15.0861 65.1986 14.7814 65.199 14.4735C65.1995 14.1657 65.1393 13.8608 65.022 13.5762C64.9046 13.2917 64.7323 13.033 64.515 12.815C64.2976 12.597 64.0395 12.424 63.7553 12.3057C63.4711 12.1875 63.1663 12.1264 62.8585 12.1259C62.5507 12.1255 62.2458 12.1856 61.9612 12.303C61.6766 12.4204 61.418 12.5927 61.2 12.81L57.88 16.13C57.4411 16.5703 57.195 17.1669 57.1959 17.7885C57.1969 18.4102 57.4447 19.0061 57.885 19.445C58.3252 19.8839 58.9218 20.13 59.5435 20.1291C60.1652 20.1281 60.7611 19.8803 61.2 19.44Z" fill="#F6F1E9"/>
<path d="M14.84 36.7H19.53C20.1506 36.7 20.7458 36.4535 21.1846 36.0146C21.6235 35.5758 21.87 34.9806 21.87 34.36C21.87 33.7394 21.6235 33.1442 21.1846 32.7054C20.7458 32.2665 20.1506 32.02 19.53 32.02H14.84C14.2194 32.02 13.6242 32.2665 13.1854 32.7054C12.7465 33.1442 12.5 33.7394 12.5 34.36C12.5 34.9806 12.7465 35.5758 13.1854 36.0146C13.6242 36.4535 14.2194 36.7 14.84 36.7Z" fill="#F6F1E9"/>
<path d="M64.0601 34.36C64.0601 34.9806 64.3066 35.5758 64.7454 36.0146C65.1843 36.4535 65.7795 36.7 66.4001 36.7H71.0901C71.7107 36.7 72.3059 36.4535 72.7447 36.0146C73.1835 35.5758 73.4301 34.9806 73.4301 34.36C73.4301 33.7394 73.1835 33.1442 72.7447 32.7054C72.3059 32.2665 71.7107 32.02 71.0901 32.02H66.4001C65.7795 32.02 65.1843 32.2665 64.7454 32.7054C64.3066 33.1442 64.0601 33.7394 64.0601 34.36Z" fill="#F6F1E9"/>
<path d="M24.73 19.44C25.169 19.8803 25.7648 20.1281 26.3865 20.1291C27.0082 20.13 27.6048 19.8839 28.045 19.445C28.4853 19.0061 28.7331 18.4102 28.7341 17.7885C28.735 17.1669 28.489 16.5703 28.05 16.13L24.73 12.81C24.2898 12.3711 23.6932 12.125 23.0715 12.1259C22.4498 12.1269 21.854 12.3747 21.415 12.815C20.9761 13.2553 20.73 13.8519 20.731 14.4735C20.7319 15.0952 20.9798 15.6911 21.42 16.13L24.73 19.44Z" fill="#F6F1E9"/>
<path d="M71.09 41.39C70.3168 41.3865 69.5444 41.4434 68.78 41.56C66.3526 38.254 63.0965 35.6464 59.34 34C59.3171 31.8476 58.8704 29.7209 58.0254 27.7411C57.1805 25.7614 55.954 23.9675 54.4158 22.4618C51.3092 19.4209 47.1219 17.7386 42.775 17.785C40.6227 17.808 38.4959 18.2547 36.5162 19.0996C34.5364 19.9445 32.7425 21.1711 31.2368 22.7093C28.1959 25.8158 26.5136 30.0031 26.56 34.35C26.5753 36.8145 27.1533 39.2429 28.25 41.45C23.9918 41.6576 19.9823 43.5172 17.0732 46.6337C14.1642 49.7503 12.5849 53.8783 12.6708 58.1407C12.7567 62.4031 14.5011 66.4641 17.5334 69.4609C20.5657 72.4577 24.6469 74.1542 28.91 74.19C30.8961 74.1941 32.8658 73.8313 34.72 73.12C36.49 74.66 36.36 74.96 38.47 75.9L40.57 72.35C40.5714 72.1012 40.5982 71.8533 40.65 71.61C38.7533 70.4887 37.0623 69.0513 35.65 67.36C34.144 68.4186 32.4097 69.1072 30.5877 69.37C28.7658 69.6328 26.9075 69.4624 25.1638 68.8726C23.42 68.2827 21.8399 67.2901 20.5516 65.9752C19.2633 64.6603 18.3031 63.0602 17.749 61.3047C17.195 59.5493 17.0625 57.6879 17.3625 55.8717C17.6625 54.0555 18.3864 52.3356 19.4756 50.8516C20.5647 49.3675 21.9884 48.1612 23.6311 47.3304C25.2738 46.4996 27.0892 46.0678 28.93 46.07C30.0296 46.0842 31.1212 46.2594 32.17 46.59C32.5812 46.6861 32.9854 46.8097 33.38 46.96C34.0311 45.7183 34.8158 44.5514 35.72 43.48C37.4535 41.3673 39.6325 39.6639 42.1012 38.4918C44.5699 37.3197 47.2672 36.7078 50 36.7C51.4434 36.7134 52.8801 36.8981 54.28 37.25C55.806 37.6059 57.2785 38.1607 58.66 38.9C62.0925 40.7041 64.8859 43.5219 66.66 46.97C68.5424 46.1894 70.5957 45.913 72.6174 46.1681C74.6392 46.4233 76.5594 47.2012 78.1887 48.4251C79.8181 49.649 81.1001 51.2765 81.9084 53.1471C82.7167 55.0177 83.0233 57.0668 82.7979 59.092C82.5726 61.1173 81.8231 63.0488 80.6233 64.696C79.4236 66.3432 77.8151 67.6491 75.9566 68.4848C74.0981 69.3206 72.0538 69.6573 70.0254 69.4618C67.9971 69.2663 66.0547 68.5453 64.39 67.37C62.8309 69.2633 60.9188 70.8358 58.76 72C58.7699 72.1365 58.7699 72.2735 58.76 72.41L61.1 76.2C63.44 75.2 63.29 74.87 65.23 73.2C67.0881 73.9103 69.0609 74.273 71.05 74.27C73.2384 74.324 75.4156 73.9397 77.4532 73.1395C79.4908 72.3394 81.3477 71.1397 82.9146 69.611C84.4815 68.0823 85.7267 66.2555 86.5769 64.2383C87.4271 62.221 87.8651 60.0541 87.8651 57.865C87.8651 55.6759 87.4271 53.509 86.5769 51.4917C85.7267 49.4745 84.4815 47.6477 82.9146 46.119C81.3477 44.5903 79.4908 43.3906 77.4532 42.5905C75.4156 41.7903 73.2384 41.406 71.05 41.46L71.09 41.39ZM50 32C46.7228 32.0016 43.4831 32.6976 40.4943 34.042C37.5055 35.3865 34.8354 37.3489 32.66 39.8C31.8588 38.3016 31.3941 36.6464 31.2985 34.9499C31.2028 33.2534 31.4784 31.5565 32.1061 29.9775C32.7338 28.3985 33.6985 26.9755 34.9328 25.8077C36.1671 24.64 37.6414 23.7556 39.2527 23.2163C40.864 22.6769 42.5736 22.4957 44.2622 22.6851C45.9508 22.8746 47.5777 23.4302 49.0294 24.3132C50.4812 25.1961 51.7228 26.3852 52.6676 27.7975C53.6125 29.2098 54.2378 30.8112 54.5 32.49C53.0196 32.1804 51.5124 32.0163 50 32Z" fill="#F6F1E9"/>
</svg>
