<svg width="100" height="100" viewBox="0 0 100 100" fill="none" xmlns="http://www.w3.org/2000/svg">
<rect width="100" height="100" />
<path fill-rule="evenodd" clip-rule="evenodd" d="M76.23 37.23C76.961 36.7111 77.656 36.1431 78.31 35.53C80.2727 33.5535 81.7661 31.1612 82.68 28.53C82.8285 28.1122 82.8547 27.6606 82.7555 27.2284C82.6563 26.7962 82.4358 26.4012 82.12 26.09C81.8105 25.7746 81.4168 25.555 80.9859 25.4575C80.555 25.3599 80.105 25.3886 79.69 25.54C77.1927 26.4342 74.4928 26.6005 71.9046 26.0196C69.3165 25.4387 66.9466 24.1346 65.071 22.2589C63.1954 20.3833 61.8912 18.0134 61.3103 15.4253C60.7294 12.8372 60.8958 10.1373 61.79 7.63999C61.9426 7.22129 61.9725 6.76771 61.8762 6.33259C61.7799 5.89747 61.5613 5.49891 61.2462 5.18378C60.931 4.86866 60.5325 4.65007 60.0974 4.55374C59.6622 4.4574 59.2087 4.48733 58.79 4.63999C54.3241 6.17674 50.6151 9.36332 48.423 13.5467C46.2309 17.73 45.7218 22.5933 47 27.14C43.8661 27.5418 40.847 28.5781 38.127 30.1857C35.407 31.7933 33.0432 33.9384 31.18 36.49C28.7029 36.1367 26.1779 36.3549 23.7982 37.1279C21.4185 37.9008 19.2472 39.208 17.4505 40.9494C15.6538 42.6908 14.2794 44.8202 13.4325 47.1746C12.5856 49.529 12.2886 52.046 12.5643 54.5328C12.8401 57.0197 13.6811 59.4105 15.0232 61.5222C16.3652 63.6339 18.1727 65.4106 20.3071 66.7161C22.4416 68.0217 24.8465 68.8215 27.3377 69.0545C29.829 69.2874 32.3405 68.9472 34.68 68.06C36.0521 69.2253 37.5516 70.2317 39.15 71.06L41.48 67C39.2386 65.8266 37.2507 64.2226 35.63 62.28C33.9662 63.4509 32.026 64.168 30.0007 64.3609C27.9753 64.5537 25.9347 64.2155 24.0798 63.3797C22.2249 62.5438 20.6199 61.2391 19.4227 59.5941C18.2255 57.9492 17.4776 56.0206 17.2526 53.9986C17.0276 51.9766 17.3333 49.9309 18.1396 48.0629C18.9458 46.195 20.2249 44.5694 21.8506 43.3462C23.4764 42.1231 25.3927 41.3446 27.4109 41.0875C29.4291 40.8304 31.4795 41.1035 33.36 41.88C34.8434 38.9725 37.0621 36.504 39.7954 34.7198C42.5287 32.9357 45.6813 31.898 48.94 31.71C49.29 31.71 49.64 31.63 50 31.63C54.254 31.6354 58.3759 33.1082 61.67 35.8C63.4021 37.2359 64.8679 38.9656 66 40.91C66.2 41.24 66.42 41.55 66.59 41.91C68.4723 41.1293 70.5256 40.853 72.5473 41.1081C74.5691 41.3633 76.4894 42.1412 78.1187 43.3651C79.748 44.5889 81.0301 46.2165 81.8383 48.0871C82.6466 49.9577 82.9532 52.0067 82.7279 54.032C82.5025 56.0573 81.753 57.9888 80.5533 59.636C79.3535 61.2832 77.745 62.5891 75.8865 63.4248C74.028 64.2606 71.9837 64.5973 69.9554 64.4018C67.927 64.2063 65.9846 63.4853 64.32 62.31C62.7644 64.1738 60.8713 65.7277 58.74 66.89L60.88 71.06C62.4373 70.2254 63.8964 69.2191 65.23 68.06C67.088 68.7703 69.0608 69.133 71.05 69.13C74.9422 69.1361 78.7091 67.7543 81.6741 65.2327C84.6391 62.7112 86.608 59.2152 87.2272 55.3725C87.8464 51.5298 87.0752 47.5923 85.0523 44.2671C83.0293 40.9418 79.8871 38.4468 76.19 37.23H76.23Z" fill="#F6F1E9"/>
<path fill-rule="evenodd" clip-rule="evenodd" d="M50 63.62C50 63.62 45 70.85 45 73.62C45 74.9461 45.5268 76.2178 46.4645 77.1555C47.4021 78.0932 48.6739 78.62 50 78.62C51.3261 78.62 52.5979 78.0932 53.5355 77.1555C54.4732 76.2178 55 74.9461 55 73.62C55 70.85 50 63.62 50 63.62Z" fill="#F6F1E9"/>
<path fill-rule="evenodd" clip-rule="evenodd" d="M38.66 90.5C38.66 91.8261 39.1868 93.0979 40.1245 94.0355C41.0622 94.9732 42.334 95.5 43.66 95.5C44.9861 95.5 46.2579 94.9732 47.1956 94.0355C48.1333 93.0979 48.66 91.8261 48.66 90.5C48.66 87.74 43.66 80.5 43.66 80.5C43.66 80.5 38.66 87.74 38.66 90.5Z" fill="#F6F1E9"/>
<path fill-rule="evenodd" clip-rule="evenodd" d="M23.49 85.5C23.49 86.8261 24.0168 88.0979 24.9545 89.0355C25.8921 89.9732 27.1639 90.5 28.49 90.5C29.8161 90.5 31.0878 89.9732 32.0255 89.0355C32.9632 88.0979 33.49 86.8261 33.49 85.5C33.49 82.74 28.49 75.5 28.49 75.5C28.49 75.5 23.49 82.74 23.49 85.5Z" fill="#F6F1E9"/>
<path fill-rule="evenodd" clip-rule="evenodd" d="M53.84 90.5C53.84 91.8261 54.3668 93.0979 55.3044 94.0355C56.2421 94.9732 57.5139 95.5 58.84 95.5C60.166 95.5 61.4378 94.9732 62.3755 94.0355C63.3132 93.0979 63.84 91.8261 63.84 90.5C63.84 87.74 58.84 80.5 58.84 80.5C58.84 80.5 53.84 87.74 53.84 90.5Z" fill="#F6F1E9"/>
<path fill-rule="evenodd" clip-rule="evenodd" d="M69 85.5C69 86.8261 69.5268 88.0979 70.4645 89.0355C71.4021 89.9732 72.6739 90.5 74 90.5C75.3261 90.5 76.5979 89.9732 77.5355 89.0355C78.4732 88.0979 79 86.8261 79 85.5C79 82.74 74 75.5 74 75.5C74 75.5 69 82.74 69 85.5Z" fill="#F6F1E9"/>
</svg>
