<svg width="100" height="100" viewBox="0 0 100 100" fill="none" xmlns="http://www.w3.org/2000/svg">
<rect width="100" height="100" />
<path fill-rule="evenodd" clip-rule="evenodd" d="M71.09 24.22C70.3172 24.2178 69.5452 24.2713 68.78 24.38C66.622 21.4232 63.7963 19.0177 60.5329 17.3594C57.2695 15.7011 53.6606 14.8367 50 14.8367C46.3395 14.8367 42.7306 15.7011 39.4672 17.3594C36.2038 19.0177 33.3781 21.4232 31.22 24.38C28.7454 24.0361 26.2248 24.2617 23.8506 25.0398C21.4764 25.8178 19.3112 27.1277 17.5201 28.8696C15.729 30.6115 14.3593 32.7394 13.5154 35.091C12.6715 37.4426 12.3757 39.9559 12.6506 42.4391C12.9255 44.9224 13.7637 47.3102 15.1015 49.4203C16.4393 51.5304 18.2412 53.3072 20.3699 54.6152C22.4986 55.9232 24.8978 56.7279 27.3847 56.9679C29.8716 57.2079 32.3805 56.8768 34.72 56C36.5198 57.5372 38.5429 58.7915 40.72 59.72L44.36 56C40.9591 54.9123 37.9335 52.8883 35.63 50.16C33.9662 51.3309 32.0261 52.048 30.0007 52.2409C27.9754 52.4337 25.9348 52.0955 24.0799 51.2597C22.225 50.4238 20.6199 49.1191 19.4228 47.4742C18.2256 45.8292 17.4777 43.9007 17.2527 41.8786C17.0277 39.8566 17.3334 37.8109 18.1396 35.9429C18.9459 34.075 20.2249 32.4494 21.8507 31.2262C23.4764 30.0031 25.3928 29.2246 27.411 28.9675C29.4292 28.7104 31.4795 28.9835 33.36 29.76C34.9077 26.6742 37.2832 24.0797 40.2209 22.2665C43.1587 20.4534 46.5428 19.4932 49.995 19.4932C53.4472 19.4932 56.8314 20.4534 59.7691 22.2665C62.7068 24.0797 65.0823 26.6742 66.63 29.76C68.5123 28.9793 70.5657 28.703 72.5874 28.9581C74.6092 29.2133 76.5294 29.9912 78.1587 31.2151C79.7881 32.4389 81.0701 34.0665 81.8784 35.9371C82.6867 37.8077 82.9933 39.8568 82.7679 41.882C82.5426 43.9073 81.7931 45.8388 80.5933 47.486C79.3936 49.1332 77.7851 50.4391 75.9266 51.2748C74.0681 52.1106 72.0238 52.4473 69.9954 52.2518C67.967 52.0563 66.0247 51.3353 64.36 50.16C62.8203 51.9828 60.9511 53.4992 58.85 54.63L56.85 60.54C59.9429 59.6239 62.813 58.0782 65.28 56C67.5277 56.8499 69.9347 57.1955 72.3307 57.0123C74.7267 56.8291 77.0531 56.1216 79.1455 54.9399C81.2378 53.7582 83.0449 52.1311 84.4389 50.1737C85.8329 48.2164 86.7797 45.9767 87.2124 43.6129C87.645 41.2492 87.553 38.8193 86.9427 36.4951C86.3325 34.1709 85.2189 32.0092 83.6809 30.1629C82.1428 28.3167 80.2178 26.831 78.0421 25.8109C75.8663 24.7909 73.493 24.2614 71.09 24.26V24.22Z" fill="#F6F1E9"/>
<path fill-rule="evenodd" clip-rule="evenodd" d="M40.84 66.41L45.52 71.09L40.84 85.16L54.9 71.09L50.21 66.41L54.9 52.34L40.84 66.41Z" fill="#F6F1E9"/>
<path fill-rule="evenodd" clip-rule="evenodd" d="M59 71.13C58.9707 71.7635 59.0702 72.3963 59.2924 72.9902C59.5147 73.5841 59.8551 74.1268 60.293 74.5854C60.7309 75.044 61.2573 75.4091 61.8403 75.6585C62.4233 75.9079 63.0509 76.0365 63.685 76.0365C64.3191 76.0365 64.9467 75.9079 65.5297 75.6585C66.1127 75.4091 66.6391 75.044 67.077 74.5854C67.5149 74.1268 67.8553 73.5841 68.0775 72.9902C68.2998 72.3963 68.3993 71.7635 68.37 71.13C68.37 68.54 63.68 61.76 63.68 61.76C63.68 61.76 59 68.54 59 71.13Z" fill="#F6F1E9"/>
<path fill-rule="evenodd" clip-rule="evenodd" d="M30.12 71.13C30.0907 71.7635 30.1902 72.3963 30.4124 72.9902C30.6347 73.5841 30.9751 74.1268 31.413 74.5854C31.8509 75.044 32.3773 75.4091 32.9603 75.6585C33.5433 75.9079 34.1709 76.0365 34.805 76.0365C35.4391 76.0365 36.0667 75.9079 36.6497 75.6585C37.2327 75.4091 37.7591 75.044 38.197 74.5854C38.6349 74.1268 38.9753 73.5841 39.1975 72.9902C39.4198 72.3963 39.5193 71.7635 39.49 71.13C39.49 68.54 34.81 61.76 34.81 61.76C34.81 61.76 30.12 68.54 30.12 71.13Z" fill="#F6F1E9"/>
<path fill-rule="evenodd" clip-rule="evenodd" d="M15.32 66.44C15.32 67.6839 15.8141 68.8768 16.6937 69.7563C17.5732 70.6359 18.7661 71.13 20.01 71.13C21.2539 71.13 22.4468 70.6359 23.3263 69.7563C24.2059 68.8768 24.7 67.6839 24.7 66.44C24.7 63.85 20.01 57.07 20.01 57.07C20.01 57.07 15.32 63.85 15.32 66.44Z" fill="#F6F1E9"/>
<path fill-rule="evenodd" clip-rule="evenodd" d="M73.77 66.44C73.77 67.6839 74.2641 68.8768 75.1437 69.7563C76.0232 70.6359 77.2162 71.13 78.46 71.13C79.7039 71.13 80.8968 70.6359 81.7764 69.7563C82.6559 68.8768 83.15 67.6839 83.15 66.44C83.15 63.85 78.46 57.07 78.46 57.07C78.46 57.07 73.77 63.85 73.77 66.44Z" fill="#F6F1E9"/>
</svg>
