<svg width="100" height="100" viewBox="0 0 100 100" fill="none" xmlns="http://www.w3.org/2000/svg">
<rect width="100" height="100" />
<path d="M62.77 32.24C62.77 32.9172 62.5016 33.5669 62.0237 34.0467C61.5458 34.5265 60.8972 34.7974 60.22 34.8H39.78C39.1028 34.7974 38.4542 34.5265 37.9762 34.0467C37.4983 33.5669 37.23 32.9172 37.23 32.24C37.23 31.9051 37.2959 31.5735 37.4241 31.2642C37.5522 30.9548 37.7401 30.6737 37.9769 30.4369C38.2136 30.2001 38.4948 30.0123 38.8041 29.8841C39.1135 29.756 39.4451 29.69 39.78 29.69H60.22C60.5549 29.69 60.8864 29.756 61.1958 29.8841C61.5052 30.0123 61.7863 30.2001 62.0231 30.4369C62.2599 30.6737 62.4477 30.9548 62.5759 31.2642C62.704 31.5735 62.77 31.9051 62.77 32.24Z" fill="#F6F1E9"/>
<path d="M56.39 43.3C55.8035 43.6379 55.1071 43.7297 54.4531 43.5554C53.799 43.3811 53.2406 42.9549 52.9 42.37L42.68 24.67C42.5114 24.3799 42.4017 24.0594 42.3572 23.7268C42.3127 23.3943 42.3342 23.0562 42.4206 22.732C42.507 22.4078 42.6566 22.1038 42.8607 21.8375C43.0648 21.5712 43.3194 21.3477 43.61 21.18C43.9001 21.0114 44.2206 20.9017 44.5532 20.8572C44.8857 20.8127 45.2238 20.8342 45.548 20.9206C45.8723 21.007 46.1762 21.1566 46.4426 21.3607C46.7089 21.5648 46.9323 21.8194 47.1 22.11L57.32 39.81C57.4886 40.1001 57.5983 40.4206 57.6428 40.7532C57.6873 41.0857 57.6658 41.4238 57.5794 41.748C57.493 42.0723 57.3435 42.3762 57.1394 42.6426C56.9353 42.9089 56.6806 43.1323 56.39 43.3Z" fill="#F6F1E9"/>
<path d="M56.39 21.18C56.6806 21.3477 56.9353 21.5712 57.1394 21.8375C57.3435 22.1038 57.493 22.4078 57.5794 22.732C57.6658 23.0562 57.6873 23.3943 57.6428 23.7268C57.5983 24.0594 57.4886 24.3799 57.32 24.67L47.1 42.37C46.7594 42.9549 46.201 43.3811 45.547 43.5554C44.8929 43.7297 44.1965 43.6379 43.61 43.3C43.3194 43.1323 43.0648 42.9089 42.8607 42.6426C42.6566 42.3762 42.507 42.0723 42.4206 41.748C42.3342 41.4238 42.3127 41.0857 42.3572 40.7532C42.4017 40.4206 42.5114 40.1001 42.68 39.81L52.9 22.11C53.0677 21.8194 53.2912 21.5648 53.5575 21.3607C53.8238 21.1566 54.1278 21.007 54.452 20.9206C54.7762 20.8342 55.1143 20.8127 55.4468 20.8572C55.7794 20.9017 56.0999 21.0114 56.39 21.18Z" fill="#F6F1E9"/>
<path d="M81.54 65.26C81.54 65.9355 81.2731 66.5837 80.7973 67.0632C80.3215 67.5427 79.6755 67.8147 79 67.82H58.55C57.8728 67.8174 57.2242 67.5465 56.7463 67.0667C56.2683 66.5869 56 65.9373 56 65.26C56 64.5837 56.2687 63.9351 56.7469 63.4569C57.2251 62.9787 57.8737 62.71 58.55 62.71H79C79.6763 62.71 80.3249 62.9787 80.8031 63.4569C81.2813 63.9351 81.55 64.5837 81.55 65.26H81.54Z" fill="#F6F1E9"/>
<path d="M75.16 76.32C74.8699 76.4886 74.5494 76.5983 74.2168 76.6428C73.8842 76.6873 73.5462 76.6658 73.2219 76.5794C72.8977 76.493 72.5937 76.3434 72.3274 76.1393C72.0611 75.9352 71.8377 75.6806 71.67 75.39L61.45 57.69C61.2814 57.3999 61.1717 57.0794 61.1271 56.7468C61.0826 56.4142 61.1042 56.0762 61.1906 55.752C61.277 55.4277 61.4265 55.1238 61.6306 54.8574C61.8347 54.5911 62.0894 54.3677 62.38 54.2C62.9665 53.8621 63.6629 53.7703 64.3169 53.9446C64.971 54.1189 65.5294 54.5451 65.87 55.13L76.09 72.84C76.2583 73.1293 76.3679 73.4491 76.4123 73.7809C76.4566 74.1127 76.435 74.4499 76.3486 74.7733C76.2621 75.0968 76.1126 75.3999 75.9087 75.6653C75.7047 75.9307 75.4502 76.1532 75.16 76.32Z" fill="#F6F1E9"/>
<path d="M75.16 54.2C75.4507 54.3677 75.7053 54.5911 75.9094 54.8574C76.1135 55.1238 76.263 55.4277 76.3494 55.752C76.4358 56.0762 76.4574 56.4142 76.4129 56.7468C76.3684 57.0794 76.2586 57.3999 76.09 57.69L65.87 75.39C65.7023 75.6806 65.4789 75.9352 65.2126 76.1393C64.9463 76.3434 64.6423 76.493 64.3181 76.5794C63.9939 76.6658 63.6558 76.6873 63.3232 76.6428C62.9906 76.5983 62.6701 76.4886 62.38 76.32C62.0898 76.1532 61.8353 75.9307 61.6314 75.6653C61.4274 75.3999 61.2779 75.0968 61.1915 74.7733C61.105 74.4499 61.0834 74.1127 61.1278 73.7809C61.1721 73.4491 61.2817 73.1293 61.45 72.84L71.67 55.13C72.0107 54.5451 72.5691 54.1189 73.2231 53.9446C73.8771 53.7703 74.5735 53.8621 75.16 54.2Z" fill="#F6F1E9"/>
<path d="M44 65.26C44 65.9373 43.7317 66.5869 43.2537 67.0667C42.7758 67.5465 42.1272 67.8174 41.45 67.82H21C20.3228 67.8174 19.6742 67.5465 19.1963 67.0667C18.7183 66.5869 18.45 65.9373 18.45 65.26C18.45 64.5837 18.7187 63.9351 19.1969 63.4569C19.6751 62.9787 20.3237 62.71 21 62.71H41.45C42.1263 62.71 42.7749 62.9787 43.2531 63.4569C43.7313 63.9351 44 64.5837 44 65.26Z" fill="#F6F1E9"/>
<path d="M37.62 76.32C37.3299 76.4886 37.0094 76.5983 36.6768 76.6428C36.3443 76.6873 36.0062 76.6658 35.682 76.5794C35.3578 76.493 35.0538 76.3434 34.7875 76.1393C34.5211 75.9352 34.2977 75.6806 34.13 75.39L23.91 57.69C23.7414 57.3999 23.6317 57.0794 23.5872 56.7468C23.5427 56.4142 23.5642 56.0762 23.6506 55.752C23.737 55.4277 23.8865 55.1238 24.0906 54.8574C24.2947 54.5911 24.5494 54.3677 24.84 54.2C25.4265 53.8621 26.1229 53.7703 26.777 53.9446C27.431 54.1189 27.9894 54.5451 28.33 55.13L38.55 72.84C38.7184 73.1293 38.8279 73.4491 38.8723 73.7809C38.9166 74.1127 38.895 74.4499 38.8086 74.7733C38.7222 75.0968 38.5727 75.3999 38.3687 75.6653C38.1647 75.9307 37.9103 76.1532 37.62 76.32Z" fill="#F6F1E9"/>
<path d="M37.62 54.2C37.9106 54.3677 38.1653 54.5911 38.3694 54.8574C38.5735 55.1238 38.723 55.4277 38.8094 55.752C38.8958 56.0762 38.9173 56.4142 38.8728 56.7468C38.8283 57.0794 38.7186 57.3999 38.55 57.69L28.33 75.39C28.1623 75.6806 27.9389 75.9352 27.6725 76.1393C27.4062 76.3434 27.1022 76.493 26.778 76.5794C26.4538 76.6658 26.1157 76.6873 25.7832 76.6428C25.4506 76.5983 25.1301 76.4886 24.84 76.32C24.5497 76.1532 24.2953 75.9307 24.0913 75.6653C23.8874 75.3999 23.7378 75.0968 23.6514 74.7733C23.565 74.4499 23.5433 74.1127 23.5877 73.7809C23.6321 73.4491 23.7416 73.1293 23.91 72.84L34.13 55.13C34.4706 54.5451 35.029 54.1189 35.683 53.9446C36.3371 53.7703 37.0335 53.8621 37.62 54.2Z" fill="#F6F1E9"/>
</svg>
